<?xml version="1.0" encoding="UTF-8" standalone="no"?>
<!DOCTYPE svg  PUBLIC '-//W3C//DTD SVG 1.1//EN'  'http://www.w3.org/Graphics/SVG/1.1/DTD/svg11.dtd'>
<svg xmlns="http://www.w3.org/2000/svg" xml:space="preserve" height="21px" width="21px" version="1.1" y="0px" x="0px" xmlns:xlink="http://www.w3.org/1999/xlink" viewBox="0 0 21 21" enable-background="new 0 0 21 21">
<path d="m16.742 15.502l-2.742-2.744h-0.643l-0.551-0.551c0.734-0.869 1.194-1.978 1.194-3.207 0-2.761-2.238-5-5-5s-5 2.239-5 5c0 2.762 2.238 5 5 5 1.229 0 2.338-0.459 3.208-1.193l0.552 0.551v0.642l2.742 2.742c0.342 0.344 0.896 0.344 1.24 0.002 0.344-0.344 0.344-0.898 0-1.242zm-7.742-3.252c-1.795 0-3.25-1.455-3.25-3.25s1.455-3.25 3.25-3.25c1.797 0 3.25 1.455 3.25 3.25s-1.453 3.25-3.25 3.25z" fill="#fff"/>
</svg>
