<?xml version="1.0" encoding="UTF-8" standalone="no"?>
<!-- Generator: Adobe Illustrator 16.0.0, SVG Export Plug-In . SVG Version: 6.00 Build 0)  -->
<!DOCTYPE svg  PUBLIC '-//W3C//DTD SVG 1.1//EN'  'http://www.w3.org/Graphics/SVG/1.1/DTD/svg11.dtd'>
<svg id="Layer_1" xmlns="http://www.w3.org/2000/svg" y="0px" xml:space="preserve" height="12px" width="12px" version="1.1" x="0px" xmlns:xlink="http://www.w3.org/1999/xlink" viewBox="0 0 12 12" enable-background="new 0 0 12 12">
<path d="m4 11.5c-0.131 0-0.259-0.052-0.354-0.146-0.128-0.129-3.146-3.183-3.146-6.354 0-0.185 0.102-0.354 0.264-0.441 0.074-0.039 0.155-0.059 0.236-0.059 0.097 0 0.194 0.028 0.277 0.084l2.577 1.718c0.855-1.28 3.544-4.917 7.025-5.787 0.04-0.01 0.081-0.015 0.121-0.015 0.171 0 0.333 0.087 0.426 0.237 0.114 0.185 0.096 0.423-0.046 0.588-0.06 0.069-5.948 6.96-6.906 9.833-0.055 0.164-0.19 0.289-0.359 0.328-0.038 0.01-0.077 0.014-0.115 0.014z"/>
<path d="m11 1s-6 7-7 10-3-3-3-6l3 2s3-5 7-6m0-1c-0.08 0-0.162 0.01-0.242 0.03-3.317 0.829-5.925 4.016-7.036 5.583l-2.167-1.445c-0.168-0.111-0.361-0.168-0.555-0.168-0.162 0-0.324 0.039-0.472 0.118-0.325 0.174-0.528 0.513-0.528 0.882 0 3.375 3.158 6.572 3.293 6.707 0.189 0.189 0.445 0.293 0.707 0.293 0.077 0 0.153-0.009 0.23-0.026 0.337-0.08 0.609-0.329 0.719-0.657 0.77-2.309 5.177-7.76 6.81-9.666 0.284-0.331 0.32-0.806 0.092-1.177-0.185-0.299-0.51-0.474-0.851-0.474z" fill="#fff"/>
</svg>
